<?xml version="1.0" standalone="no"?><!DOCTYPE svg PUBLIC "-//W3C//DTD SVG 1.1//EN" "http://www.w3.org/Graphics/SVG/1.1/DTD/svg11.dtd"><svg t="1718980167196" class="icon" viewBox="0 0 1024 1024" version="1.1" xmlns="http://www.w3.org/2000/svg" p-id="74289" xmlns:xlink="http://www.w3.org/1999/xlink" width="64" height="64"><path d="M624.109714 859.428571l-11.392-1.645714a94.756571 94.756571 0 0 1-46.153143-19.931428 98.56 98.56 0 0 1-33.426285-48.109715 96.329143 96.329143 0 0 1-4.754286-29.897143c-0.091429-75.373714-0.036571-150.729143-0.036571-226.102857v-5.339428h5.12c76.470857 0 152.96-0.237714 229.430857 0.146285 20.845714 0.109714 39.862857 7.131429 56.685714 19.803429a98.852571 98.852571 0 0 1 29.348571 35.236571c5.632 11.282286 9.307429 23.222857 9.691429 36.022858 0.036571 0.694857 0.530286 1.371429 0.804571 2.066285v143.634286c-0.274286 0.841143-0.658286 1.645714-0.804571 2.505143-1.353143 7.259429-2.011429 14.72-4.077714 21.76-5.833143 19.821714-17.554286 35.803429-33.718857 48.566857a93.531429 93.531429 0 0 1-45.787429 19.657143l-11.392 1.627428h-139.52z m69.76-713.142857a165.558857 165.558857 0 1 1 0 331.099429 165.558857 165.558857 0 0 1 0-331.099429zM146.285714 617.508571c1.097143-5.065143 2.048-10.148571 3.309715-15.158857a95.524571 95.524571 0 0 1 18.870857-37.174857 98.267429 98.267429 0 0 1 47.012571-32.091428 96.969143 96.969143 0 0 1 29.988572-4.754286h231.862857v4.443428c0 78.262857 0.182857 156.544-0.146286 234.806858-0.054857 14.153143-4.864 27.392-11.757714 39.917714a98.669714 98.669714 0 0 1-20.918857 26.368c-13.129143 11.702857-28.324571 19.693714-45.714286 23.04-5.174857 0.969143-10.514286 1.133714-15.780572 1.737143-0.566857 0.054857-1.097143 0.512-1.664 0.786285H242.285714c-0.841143-0.274286-1.645714-0.786286-2.505143-0.786285-13.641143-0.201143-26.441143-3.876571-38.491428-9.947429a96.914286 96.914286 0 0 1-31.707429-24.923428 99.382857 99.382857 0 0 1-19.931428-37.961143c-1.426286-5.394286-2.267429-10.916571-3.364572-16.384L146.285714 617.508571M388.809143 146.285714c5.211429 1.097143 10.459429 1.974857 15.597714 3.346286a99.949714 99.949714 0 0 1 38.070857 19.986286c12.032 9.929143 20.699429 22.217143 26.953143 36.260571 4.772571 10.678857 7.917714 21.906286 7.917714 33.700572 0.054857 77.494857 0.036571 155.008 0.036572 232.502857v5.266285h-4.406857c-78.208 0-156.397714 0.182857-234.605715-0.164571-15.213714-0.054857-29.586286-5.065143-42.569142-13.019429-7.113143-4.352-14.153143-9.289143-20.022858-15.158857-9.984-10.002286-17.993143-21.577143-22.930285-35.072-2.980571-8.155429-5.394286-16.402286-5.851429-25.124571 0-0.292571-0.457143-0.566857-0.713143-0.859429v-152.283428c0.274286-0.548571 0.676571-1.078857 0.804572-1.664 1.499429-7.094857 2.249143-14.445714 4.589714-21.266286 6.363429-18.56 17.737143-33.755429 33.188571-45.805714 9.874286-7.68 20.662857-13.677714 32.932572-16.64 5.668571-1.353143 11.373714-2.669714 17.060571-4.004572h153.965715" p-id="74290" fill="#6b96cd"></path></svg>