<?xml version="1.0" standalone="no"?><!DOCTYPE svg PUBLIC "-//W3C//DTD SVG 1.1//EN" "http://www.w3.org/Graphics/SVG/1.1/DTD/svg11.dtd"><svg t="1718976606744" class="icon" viewBox="0 0 1024 1024" version="1.1" xmlns="http://www.w3.org/2000/svg" p-id="13929" xmlns:xlink="http://www.w3.org/1999/xlink" width="64" height="64"><path d="M511.63178 1023.998115A511.618306 511.618306 0 0 1 149.863783 150.611813a511.618306 511.618306 0 1 1 723.535993 723.535993A508.279323 508.279323 0 0 1 511.63178 1023.998115z m3.985237-767.427459a23.534442 23.534442 0 0 0-11.363312 2.881219l-193.149374 115.00641s-12.817385 8.078184-12.628894 18.525968 0 236.960057 0 239.275804a17.879713 17.879713 0 0 0 7.243438 13.005875c7.001093 5.035401 198.373266 119.395556 200.31203 120.55343a18.418259 18.418259 0 0 0 9.424548 2.342673 25.661697 25.661697 0 0 0 10.447785-2.342673c11.928785-6.839529 194.899647-115.787301 196.730702-116.89132 0 0 10.770912-4.954619 10.770911-25.957897V400.362328a28.515989 28.515989 0 0 0-16.156367-27.81588c-18.552895-10.770912-187.8447-112.125191-189.541119-113.094573a27.304261 27.304261 0 0 0-12.090348-2.881219z m-1.58871 456.013475a14.459949 14.459949 0 0 1-7.405001-1.831055c-1.507928-0.915527-151.869855-90.448731-157.282239-94.245478a13.867549 13.867549 0 0 1-5.708583-10.151584c0-7.405002 0.161564-179.227971 0-187.279227s9.828457-14.433022 9.936166-14.486877l151.654437-90.017894a18.472114 18.472114 0 0 1 8.912929-2.234964 21.272551 21.272551 0 0 1 9.50533 2.261891c40.390919 24.234551 83.770766 49.97703 132.643778 79.058492l-131.028141 81.778147a29.620007 29.620007 0 0 0-10.770912 24.234551V541.999816l170.745878-106.578171v41.333374a33.928372 33.928372 0 0 1-7.135729 19.683841l-151.035109 93.760786a40.390919 40.390919 0 0 0-12.57504 27.788953v40.794828l170.772805-106.605099v46.691902c0 16.452568-8.428238 20.303169-8.50902 20.330096l-0.403909 0.242346c-14.836931 8.80522-145.245744 86.167294-154.077892 91.229622a20.357023 20.357023 0 0 1-8.239748 1.884909z" fill="#409EFF" p-id="13930"></path></svg>